<svg viewBox="0 0 100 100" xmlns="http://www.w3.org/2000/svg">
<style>.h{display:none} @media (prefers-color-scheme: dark){.h{display:inline}}</style>
<path d="M0,0 C4.0,-4.3 10.5,-4.3 13.5,0 C10.5,4.3 4.0,4.3 0,0 Z" fill="none" stroke="#F2EEDC" stroke-width="3.8" stroke-linejoin="round" transform="translate(53.9,82.8) rotate(-33) scale(1,1.0)" class="h"/><path d="M0,0 C4.0,-4.3 10.5,-4.3 13.5,0 C10.5,4.3 4.0,4.3 0,0 Z" fill="#5B9E45" stroke="#1A2415" stroke-width="1.4" stroke-linejoin="round" transform="translate(53.9,82.8) rotate(-33) scale(1,1.0)"/><path d="M0,0 C3.8,-4.1 9.9,-4.1 12.7,0 C9.9,4.1 3.8,4.1 0,0 Z" fill="none" stroke="#F2EEDC" stroke-width="3.8" stroke-linejoin="round" transform="translate(53.9,82.8) rotate(19) scale(1,1.0)" class="h"/><path d="M0,0 C3.8,-4.1 9.9,-4.1 12.7,0 C9.9,4.1 3.8,4.1 0,0 Z" fill="#5B9E45" stroke="#1A2415" stroke-width="1.4" stroke-linejoin="round" transform="translate(53.9,82.8) rotate(19) scale(1,1.0)"/><path d="M0,0 C3.8,-4.1 10.0,-4.1 12.8,0 C10.0,4.1 3.8,4.1 0,0 Z" fill="none" stroke="#F2EEDC" stroke-width="3.8" stroke-linejoin="round" transform="translate(64.5,79.5) rotate(-53) scale(1,1.0)" class="h"/><path d="M0,0 C3.8,-4.1 10.0,-4.1 12.8,0 C10.0,4.1 3.8,4.1 0,0 Z" fill="#5B9E45" stroke="#1A2415" stroke-width="1.4" stroke-linejoin="round" transform="translate(64.5,79.5) rotate(-53) scale(1,1.0)"/><path d="M0,0 C3.6,-3.9 9.4,-3.9 12.1,0 C9.4,3.9 3.6,3.9 0,0 Z" fill="none" stroke="#F2EEDC" stroke-width="3.8" stroke-linejoin="round" transform="translate(64.5,79.5) rotate(-1) scale(1,1.0)" class="h"/><path d="M0,0 C3.6,-3.9 9.4,-3.9 12.1,0 C9.4,3.9 3.6,3.9 0,0 Z" fill="#5B9E45" stroke="#1A2415" stroke-width="1.4" stroke-linejoin="round" transform="translate(64.5,79.5) rotate(-1) scale(1,1.0)"/><path d="M0,0 C3.6,-3.9 9.5,-3.9 12.2,0 C9.5,3.9 3.6,3.9 0,0 Z" fill="none" stroke="#F2EEDC" stroke-width="3.8" stroke-linejoin="round" transform="translate(73.4,72.8) rotate(-73) scale(1,1.0)" class="h"/><path d="M0,0 C3.6,-3.9 9.5,-3.9 12.2,0 C9.5,3.9 3.6,3.9 0,0 Z" fill="#5B9E45" stroke="#1A2415" stroke-width="1.4" stroke-linejoin="round" transform="translate(73.4,72.8) rotate(-73) scale(1,1.0)"/><path d="M0,0 C3.4,-3.7 8.9,-3.7 11.4,0 C8.9,3.7 3.4,3.7 0,0 Z" fill="none" stroke="#F2EEDC" stroke-width="3.8" stroke-linejoin="round" transform="translate(73.4,72.8) rotate(-21) scale(1,1.0)" class="h"/><path d="M0,0 C3.4,-3.7 8.9,-3.7 11.4,0 C8.9,3.7 3.4,3.7 0,0 Z" fill="#5B9E45" stroke="#1A2415" stroke-width="1.4" stroke-linejoin="round" transform="translate(73.4,72.8) rotate(-21) scale(1,1.0)"/><path d="M0,0 C3.4,-3.7 9.0,-3.7 11.5,0 C9.0,3.7 3.4,3.7 0,0 Z" fill="none" stroke="#F2EEDC" stroke-width="3.8" stroke-linejoin="round" transform="translate(79.5,63.5) rotate(-93) scale(1,1.0)" class="h"/><path d="M0,0 C3.4,-3.7 9.0,-3.7 11.5,0 C9.0,3.7 3.4,3.7 0,0 Z" fill="#5B9E45" stroke="#1A2415" stroke-width="1.4" stroke-linejoin="round" transform="translate(79.5,63.5) rotate(-93) scale(1,1.0)"/><path d="M0,0 C3.2,-3.5 8.4,-3.5 10.8,0 C8.4,3.5 3.2,3.5 0,0 Z" fill="none" stroke="#F2EEDC" stroke-width="3.8" stroke-linejoin="round" transform="translate(79.5,63.5) rotate(-41) scale(1,1.0)" class="h"/><path d="M0,0 C3.2,-3.5 8.4,-3.5 10.8,0 C8.4,3.5 3.2,3.5 0,0 Z" fill="#5B9E45" stroke="#1A2415" stroke-width="1.4" stroke-linejoin="round" transform="translate(79.5,63.5) rotate(-41) scale(1,1.0)"/><path d="M0,0 C3.2,-3.5 8.4,-3.5 10.8,0 C8.4,3.5 3.2,3.5 0,0 Z" fill="none" stroke="#F2EEDC" stroke-width="3.8" stroke-linejoin="round" transform="translate(82.0,52.7) rotate(-113) scale(1,1.0)" class="h"/><path d="M0,0 C3.2,-3.5 8.4,-3.5 10.8,0 C8.4,3.5 3.2,3.5 0,0 Z" fill="#5B9E45" stroke="#1A2415" stroke-width="1.4" stroke-linejoin="round" transform="translate(82.0,52.7) rotate(-113) scale(1,1.0)"/><path d="M0,0 C3.0,-3.2 7.9,-3.2 10.2,0 C7.9,3.2 3.0,3.2 0,0 Z" fill="none" stroke="#F2EEDC" stroke-width="3.8" stroke-linejoin="round" transform="translate(82.0,52.7) rotate(-61) scale(1,1.0)" class="h"/><path d="M0,0 C3.0,-3.2 7.9,-3.2 10.2,0 C7.9,3.2 3.0,3.2 0,0 Z" fill="#5B9E45" stroke="#1A2415" stroke-width="1.4" stroke-linejoin="round" transform="translate(82.0,52.7) rotate(-61) scale(1,1.0)"/><path d="M0,0 C3.0,-3.2 7.9,-3.2 10.1,0 C7.9,3.2 3.0,3.2 0,0 Z" fill="none" stroke="#F2EEDC" stroke-width="3.8" stroke-linejoin="round" transform="translate(80.6,41.6) rotate(-133) scale(1,1.0)" class="h"/><path d="M0,0 C3.0,-3.2 7.9,-3.2 10.1,0 C7.9,3.2 3.0,3.2 0,0 Z" fill="#5B9E45" stroke="#1A2415" stroke-width="1.4" stroke-linejoin="round" transform="translate(80.6,41.6) rotate(-133) scale(1,1.0)"/><path d="M0,0 C2.9,-3.0 7.4,-3.0 9.5,0 C7.4,3.0 2.9,3.0 0,0 Z" fill="none" stroke="#F2EEDC" stroke-width="3.8" stroke-linejoin="round" transform="translate(80.6,41.6) rotate(-81) scale(1,1.0)" class="h"/><path d="M0,0 C2.9,-3.0 7.4,-3.0 9.5,0 C7.4,3.0 2.9,3.0 0,0 Z" fill="#5B9E45" stroke="#1A2415" stroke-width="1.4" stroke-linejoin="round" transform="translate(80.6,41.6) rotate(-81) scale(1,1.0)"/><path d="M0,0 C2.8,-3.0 7.4,-3.0 9.4,0 C7.4,3.0 2.8,3.0 0,0 Z" fill="none" stroke="#F2EEDC" stroke-width="3.8" stroke-linejoin="round" transform="translate(75.6,31.7) rotate(-153) scale(1,1.0)" class="h"/><path d="M0,0 C2.8,-3.0 7.4,-3.0 9.4,0 C7.4,3.0 2.8,3.0 0,0 Z" fill="#5B9E45" stroke="#1A2415" stroke-width="1.4" stroke-linejoin="round" transform="translate(75.6,31.7) rotate(-153) scale(1,1.0)"/><path d="M0,0 C2.7,-2.8 6.9,-2.8 8.9,0 C6.9,2.8 2.7,2.8 0,0 Z" fill="none" stroke="#F2EEDC" stroke-width="3.8" stroke-linejoin="round" transform="translate(75.6,31.7) rotate(-101) scale(1,1.0)" class="h"/><path d="M0,0 C2.7,-2.8 6.9,-2.8 8.9,0 C6.9,2.8 2.7,2.8 0,0 Z" fill="#5B9E45" stroke="#1A2415" stroke-width="1.4" stroke-linejoin="round" transform="translate(75.6,31.7) rotate(-101) scale(1,1.0)"/><path d="M0,0 C2.6,-2.8 6.8,-2.8 8.8,0 C6.8,2.8 2.6,2.8 0,0 Z" fill="none" stroke="#F2EEDC" stroke-width="3.8" stroke-linejoin="round" transform="translate(67.4,24.2) rotate(-173) scale(1,1.0)" class="h"/><path d="M0,0 C2.6,-2.8 6.8,-2.8 8.8,0 C6.8,2.8 2.6,2.8 0,0 Z" fill="#5B9E45" stroke="#1A2415" stroke-width="1.4" stroke-linejoin="round" transform="translate(67.4,24.2) rotate(-173) scale(1,1.0)"/><path d="M0,0 C2.5,-2.6 6.4,-2.6 8.2,0 C6.4,2.6 2.5,2.6 0,0 Z" fill="none" stroke="#F2EEDC" stroke-width="3.8" stroke-linejoin="round" transform="translate(67.4,24.2) rotate(-121) scale(1,1.0)" class="h"/><path d="M0,0 C2.5,-2.6 6.4,-2.6 8.2,0 C6.4,2.6 2.5,2.6 0,0 Z" fill="#5B9E45" stroke="#1A2415" stroke-width="1.4" stroke-linejoin="round" transform="translate(67.4,24.2) rotate(-121) scale(1,1.0)"/><path d="M0,0 C4.0,-4.3 10.5,-4.3 13.5,0 C10.5,4.3 4.0,4.3 0,0 Z" fill="none" stroke="#F2EEDC" stroke-width="3.8" stroke-linejoin="round" transform="translate(46.1,82.8) rotate(213) scale(1,1.0)" class="h"/><path d="M0,0 C4.0,-4.3 10.5,-4.3 13.5,0 C10.5,4.3 4.0,4.3 0,0 Z" fill="#5B9E45" stroke="#1A2415" stroke-width="1.4" stroke-linejoin="round" transform="translate(46.1,82.8) rotate(213) scale(1,1.0)"/><path d="M0,0 C3.8,-4.1 9.9,-4.1 12.7,0 C9.9,4.1 3.8,4.1 0,0 Z" fill="none" stroke="#F2EEDC" stroke-width="3.8" stroke-linejoin="round" transform="translate(46.1,82.8) rotate(161) scale(1,1.0)" class="h"/><path d="M0,0 C3.8,-4.1 9.9,-4.1 12.7,0 C9.9,4.1 3.8,4.1 0,0 Z" fill="#5B9E45" stroke="#1A2415" stroke-width="1.4" stroke-linejoin="round" transform="translate(46.1,82.8) rotate(161) scale(1,1.0)"/><path d="M0,0 C3.8,-4.1 10.0,-4.1 12.8,0 C10.0,4.1 3.8,4.1 0,0 Z" fill="none" stroke="#F2EEDC" stroke-width="3.8" stroke-linejoin="round" transform="translate(35.5,79.5) rotate(233) scale(1,1.0)" class="h"/><path d="M0,0 C3.8,-4.1 10.0,-4.1 12.8,0 C10.0,4.1 3.8,4.1 0,0 Z" fill="#5B9E45" stroke="#1A2415" stroke-width="1.4" stroke-linejoin="round" transform="translate(35.5,79.5) rotate(233) scale(1,1.0)"/><path d="M0,0 C3.6,-3.9 9.4,-3.9 12.1,0 C9.4,3.9 3.6,3.9 0,0 Z" fill="none" stroke="#F2EEDC" stroke-width="3.8" stroke-linejoin="round" transform="translate(35.5,79.5) rotate(181) scale(1,1.0)" class="h"/><path d="M0,0 C3.6,-3.9 9.4,-3.9 12.1,0 C9.4,3.9 3.6,3.9 0,0 Z" fill="#5B9E45" stroke="#1A2415" stroke-width="1.4" stroke-linejoin="round" transform="translate(35.5,79.5) rotate(181) scale(1,1.0)"/><path d="M0,0 C3.6,-3.9 9.5,-3.9 12.2,0 C9.5,3.9 3.6,3.9 0,0 Z" fill="none" stroke="#F2EEDC" stroke-width="3.8" stroke-linejoin="round" transform="translate(26.6,72.8) rotate(253) scale(1,1.0)" class="h"/><path d="M0,0 C3.6,-3.9 9.5,-3.9 12.2,0 C9.5,3.9 3.6,3.9 0,0 Z" fill="#5B9E45" stroke="#1A2415" stroke-width="1.4" stroke-linejoin="round" transform="translate(26.6,72.8) rotate(253) scale(1,1.0)"/><path d="M0,0 C3.4,-3.7 8.9,-3.7 11.4,0 C8.9,3.7 3.4,3.7 0,0 Z" fill="none" stroke="#F2EEDC" stroke-width="3.8" stroke-linejoin="round" transform="translate(26.6,72.8) rotate(201) scale(1,1.0)" class="h"/><path d="M0,0 C3.4,-3.7 8.9,-3.7 11.4,0 C8.9,3.7 3.4,3.7 0,0 Z" fill="#5B9E45" stroke="#1A2415" stroke-width="1.4" stroke-linejoin="round" transform="translate(26.6,72.8) rotate(201) scale(1,1.0)"/><path d="M0,0 C3.4,-3.7 9.0,-3.7 11.5,0 C9.0,3.7 3.4,3.7 0,0 Z" fill="none" stroke="#F2EEDC" stroke-width="3.8" stroke-linejoin="round" transform="translate(20.5,63.5) rotate(273) scale(1,1.0)" class="h"/><path d="M0,0 C3.4,-3.7 9.0,-3.7 11.5,0 C9.0,3.7 3.4,3.7 0,0 Z" fill="#5B9E45" stroke="#1A2415" stroke-width="1.4" stroke-linejoin="round" transform="translate(20.5,63.5) rotate(273) scale(1,1.0)"/><path d="M0,0 C3.2,-3.5 8.4,-3.5 10.8,0 C8.4,3.5 3.2,3.5 0,0 Z" fill="none" stroke="#F2EEDC" stroke-width="3.8" stroke-linejoin="round" transform="translate(20.5,63.5) rotate(221) scale(1,1.0)" class="h"/><path d="M0,0 C3.2,-3.5 8.4,-3.5 10.8,0 C8.4,3.5 3.2,3.5 0,0 Z" fill="#5B9E45" stroke="#1A2415" stroke-width="1.4" stroke-linejoin="round" transform="translate(20.5,63.5) rotate(221) scale(1,1.0)"/><path d="M0,0 C3.2,-3.5 8.4,-3.5 10.8,0 C8.4,3.5 3.2,3.5 0,0 Z" fill="none" stroke="#F2EEDC" stroke-width="3.8" stroke-linejoin="round" transform="translate(18.0,52.7) rotate(293) scale(1,1.0)" class="h"/><path d="M0,0 C3.2,-3.5 8.4,-3.5 10.8,0 C8.4,3.5 3.2,3.5 0,0 Z" fill="#5B9E45" stroke="#1A2415" stroke-width="1.4" stroke-linejoin="round" transform="translate(18.0,52.7) rotate(293) scale(1,1.0)"/><path d="M0,0 C3.0,-3.2 7.9,-3.2 10.2,0 C7.9,3.2 3.0,3.2 0,0 Z" fill="none" stroke="#F2EEDC" stroke-width="3.8" stroke-linejoin="round" transform="translate(18.0,52.7) rotate(241) scale(1,1.0)" class="h"/><path d="M0,0 C3.0,-3.2 7.9,-3.2 10.2,0 C7.9,3.2 3.0,3.2 0,0 Z" fill="#5B9E45" stroke="#1A2415" stroke-width="1.4" stroke-linejoin="round" transform="translate(18.0,52.7) rotate(241) scale(1,1.0)"/><path d="M0,0 C3.0,-3.2 7.9,-3.2 10.1,0 C7.9,3.2 3.0,3.2 0,0 Z" fill="none" stroke="#F2EEDC" stroke-width="3.8" stroke-linejoin="round" transform="translate(19.4,41.6) rotate(313) scale(1,1.0)" class="h"/><path d="M0,0 C3.0,-3.2 7.9,-3.2 10.1,0 C7.9,3.2 3.0,3.2 0,0 Z" fill="#5B9E45" stroke="#1A2415" stroke-width="1.4" stroke-linejoin="round" transform="translate(19.4,41.6) rotate(313) scale(1,1.0)"/><path d="M0,0 C2.9,-3.0 7.4,-3.0 9.5,0 C7.4,3.0 2.9,3.0 0,0 Z" fill="none" stroke="#F2EEDC" stroke-width="3.8" stroke-linejoin="round" transform="translate(19.4,41.6) rotate(261) scale(1,1.0)" class="h"/><path d="M0,0 C2.9,-3.0 7.4,-3.0 9.5,0 C7.4,3.0 2.9,3.0 0,0 Z" fill="#5B9E45" stroke="#1A2415" stroke-width="1.4" stroke-linejoin="round" transform="translate(19.4,41.6) rotate(261) scale(1,1.0)"/><path d="M0,0 C2.8,-3.0 7.4,-3.0 9.4,0 C7.4,3.0 2.8,3.0 0,0 Z" fill="none" stroke="#F2EEDC" stroke-width="3.8" stroke-linejoin="round" transform="translate(24.4,31.7) rotate(333) scale(1,1.0)" class="h"/><path d="M0,0 C2.8,-3.0 7.4,-3.0 9.4,0 C7.4,3.0 2.8,3.0 0,0 Z" fill="#5B9E45" stroke="#1A2415" stroke-width="1.4" stroke-linejoin="round" transform="translate(24.4,31.7) rotate(333) scale(1,1.0)"/><path d="M0,0 C2.7,-2.8 6.9,-2.8 8.9,0 C6.9,2.8 2.7,2.8 0,0 Z" fill="none" stroke="#F2EEDC" stroke-width="3.8" stroke-linejoin="round" transform="translate(24.4,31.7) rotate(281) scale(1,1.0)" class="h"/><path d="M0,0 C2.7,-2.8 6.9,-2.8 8.9,0 C6.9,2.8 2.7,2.8 0,0 Z" fill="#5B9E45" stroke="#1A2415" stroke-width="1.4" stroke-linejoin="round" transform="translate(24.4,31.7) rotate(281) scale(1,1.0)"/><path d="M0,0 C2.6,-2.8 6.8,-2.8 8.8,0 C6.8,2.8 2.6,2.8 0,0 Z" fill="none" stroke="#F2EEDC" stroke-width="3.8" stroke-linejoin="round" transform="translate(32.6,24.2) rotate(353) scale(1,1.0)" class="h"/><path d="M0,0 C2.6,-2.8 6.8,-2.8 8.8,0 C6.8,2.8 2.6,2.8 0,0 Z" fill="#5B9E45" stroke="#1A2415" stroke-width="1.4" stroke-linejoin="round" transform="translate(32.6,24.2) rotate(353) scale(1,1.0)"/><path d="M0,0 C2.5,-2.6 6.4,-2.6 8.2,0 C6.4,2.6 2.5,2.6 0,0 Z" fill="none" stroke="#F2EEDC" stroke-width="3.8" stroke-linejoin="round" transform="translate(32.6,24.2) rotate(301) scale(1,1.0)" class="h"/><path d="M0,0 C2.5,-2.6 6.4,-2.6 8.2,0 C6.4,2.6 2.5,2.6 0,0 Z" fill="#5B9E45" stroke="#1A2415" stroke-width="1.4" stroke-linejoin="round" transform="translate(32.6,24.2) rotate(301) scale(1,1.0)"/>
</svg>